<svg width="192" height="71" viewBox="0 0 192 71" fill="none" xmlns="http://www.w3.org/2000/svg">
<path d="M0.5 0V7.85475L19.7955 8.10023V52.5298H26.9219V8.34572L57.9178 8.10023V0H0.5Z" fill="#FEFEFE"/>
<path d="M32.8866 52.4212H39.6379V32.7103L41.4843 30.056C43.7358 26.8187 47.7542 25.3055 51.585 26.2524C54.4074 26.95 56.7556 28.8981 57.9601 31.5414L58.2711 32.2237V52.4212H64.3582L64.5 32.5003C64.5283 28.5243 62.7395 24.7526 59.6411 22.2563C57.3193 20.3856 54.4264 19.3654 51.4437 19.3654H50.8766C47.09 19.3654 43.45 20.8288 40.7193 23.449L39.4361 24.68L39.6044 11.1369H32.8531L32.8866 52.4212Z" fill="#FEFEFE"/>
<path d="M76.3844 52.5298H70.038L70.3962 11.9611H76.3844L76.1732 16.9611C76.185 16.4867 76.9909 12.9074 83.1746 11.3159C89.8506 9.59766 97.7834 11.3159 97.7834 11.3159V16.716C97.7834 16.716 94.5 16 91.5 16C88.5 16 85.6249 16.2383 81.5 17.5C78.0455 18.5567 76.3844 23.3447 76.3844 23.3447V52.5298Z" fill="#FEFEFE"/>
<path d="M84.9042 52.5298H92.5V27.8714H84.9042V52.5298Z" fill="#FEFEFE"/>
<path d="M89.211 25.9116C90.9603 25.9116 92.378 24.0035 92.378 22.2563C92.378 20.5092 90.9603 18.5908 89.211 18.5908H87.9492C86.2003 18.5908 84.7822 20.5092 84.7822 22.2563C84.7822 24.0035 86.2003 25.9116 87.9492 25.9116H89.211Z" fill="#FEFEFE"/>
<path d="M117.664 52.2224H109.104L95.2567 19.4056H102.306L112.881 45.019H114.14L123.959 19.4056H131.008L117.664 52.2224Z" fill="#FEFEFE"/>
<path d="M19.7955 62.2455C42.6971 69.6209 123.592 77.5733 191 60V52.1138C124.416 69.4725 42.0893 62.1796 19.7955 55V62.2455Z" fill="#FEFEFE"/>
<path fill-rule="evenodd" clip-rule="evenodd" d="M131.008 35.3969C131.171 31.0705 133.113 19.8216 146.581 19.8216C160.049 19.8217 159.937 33.1472 159.937 33.1472C160.044 34.8778 159.937 37.6926 159.937 37.6926H150.651H137.939C137.939 37.6926 134.577 45.2613 144.148 47.338C153.718 49.4147 155.478 41.6926 155.478 41.6926L159.937 43.1846C159.937 43.1846 156.962 54.2604 144.148 52.5298C131.333 50.7992 130.846 39.7234 131.008 35.3969ZM155.478 33.1472C155.478 33.1472 156.318 24.1481 146.419 24.1481C136.519 24.1481 137.939 33.1472 137.939 33.1472H155.478Z" fill="#FEFEFE"/>
<path fill-rule="evenodd" clip-rule="evenodd" d="M162.939 34.9809C163.102 30.6545 165.044 19.4056 178.512 19.4056C191.98 19.4056 191.868 32.7312 191.868 32.7312C191.975 34.4618 191.868 37.2766 191.868 37.2766H182.582H169.871C169.871 37.2766 166.508 44.8453 176.079 46.922C185.649 48.9987 187.409 41.2766 187.409 41.2766L191.868 42.7686C191.868 42.7686 188.893 53.8444 176.079 52.1138C163.264 50.3832 162.777 39.3074 162.939 34.9809ZM187.409 32.7312C187.409 32.7312 188.249 23.7321 178.35 23.7321C168.45 23.7321 169.871 32.7312 169.871 32.7312H187.409Z" fill="#FEFEFE"/>
</svg>
